REM DIRINDEX 1\2,1\4,1\5,1\6,1\7,1\3\8,1\3\9,1\3\10
REM DIRNAME folder01,folder02,folder03,folder04,folder05,folder06,folder07,folder08,folder09,folder10
TITLE ""
FILE "DB4500_5th_4B_26.mp3" MP3
  TRACK 01 AUDIO
    TITLE "8:cjc113_2737"
    INDEX 01 00:00:00
  TRACK 02 AUDIO
    TITLE "0:"
    INDEX 01 00:01:11
  TRACK 03 AUDIO
    TITLE "9:cjc113_2738"
    INDEX 01 00:01:30
  TRACK 04 AUDIO
    TITLE "0:"
    INDEX 01 00:02:69
  TRACK 05 AUDIO
    TITLE "10:cjc113_2739"
    INDEX 01 00:03:14
  TRACK 06 AUDIO
    TITLE "0:"
    INDEX 01 00:06:63
  TRACK 07 AUDIO
    TITLE "8:cjc113_2740"
    INDEX 01 00:07:37
  TRACK 08 AUDIO
    TITLE "0:"
    INDEX 01 00:08:60
  TRACK 09 AUDIO
    TITLE "9:cjc113_2741"
    INDEX 01 00:09:08
  TRACK 10 AUDIO
    TITLE "0:"
    INDEX 01 00:10:45
  TRACK 11 AUDIO
    TITLE "10:cjc113_2742"
    INDEX 01 00:10:66
  TRACK 12 AUDIO
    TITLE "0:"
    INDEX 01 00:14:21
  TRACK 13 AUDIO
    TITLE "8:cjc113_2743"
    INDEX 01 00:14:68
  TRACK 14 AUDIO
    TITLE "0:"
    INDEX 01 00:16:02
  TRACK 15 AUDIO
    TITLE "9:cjc113_2744"
    INDEX 01 00:16:26
  TRACK 16 AUDIO
    TITLE "0:"
    INDEX 01 00:17:63
  TRACK 17 AUDIO
    TITLE "10:cjc113_2745"
    INDEX 01 00:18:11
  TRACK 18 AUDIO
    TITLE "0:"
    INDEX 01 00:21:06
  TRACK 19 AUDIO
    TITLE "8:cjc113_2746"
    INDEX 01 00:21:51
  TRACK 20 AUDIO
    TITLE "0:"
    INDEX 01 00:22:68
  TRACK 21 AUDIO
    TITLE "9:cjc113_2747"
    INDEX 01 00:23:16
  TRACK 22 AUDIO
    TITLE "0:"
    INDEX 01 00:24:39
  TRACK 23 AUDIO
    TITLE "10:cjc113_2748"
    INDEX 01 00:24:61
  TRACK 24 AUDIO
    TITLE "0:"
    INDEX 01 00:27:24
  TRACK 25 AUDIO
    TITLE "8:cjc113_2749"
    INDEX 01 00:28:00
  TRACK 26 AUDIO
    TITLE "0:"
    INDEX 01 00:29:01
  TRACK 27 AUDIO
    TITLE "9:cjc113_2750"
    INDEX 01 00:29:25
  TRACK 28 AUDIO
    TITLE "0:"
    INDEX 01 00:30:42
  TRACK 29 AUDIO
    TITLE "10:cjc113_2751"
    INDEX 01 00:30:61
  TRACK 30 AUDIO
    TITLE "0:"
    INDEX 01 00:33:56
  TRACK 31 AUDIO
    TITLE "8:cjc113_2752"
    INDEX 01 00:34:32
  TRACK 32 AUDIO
    TITLE "0:"
    INDEX 01 00:35:39
  TRACK 33 AUDIO
    TITLE "9:cjc113_2753"
    INDEX 01 00:35:63
  TRACK 34 AUDIO
    TITLE "0:"
    INDEX 01 00:36:56
  TRACK 35 AUDIO
    TITLE "10:cjc113_2754"
    INDEX 01 00:37:08
  TRACK 36 AUDIO
    TITLE "0:"
    INDEX 01 00:39:72
  TRACK 37 AUDIO
    TITLE "8:cjc113_2755"
    INDEX 01 00:40:38
  TRACK 38 AUDIO
    TITLE "0:"
    INDEX 01 00:41:59
  TRACK 39 AUDIO
    TITLE "9:cjc113_2756"
    INDEX 01 00:42:06
  TRACK 40 AUDIO
    TITLE "0:"
    INDEX 01 00:43:35
  TRACK 41 AUDIO
    TITLE "10:cjc113_2757"
    INDEX 01 00:43:58
  TRACK 42 AUDIO
    TITLE "0:"
    INDEX 01 00:48:24
  TRACK 43 AUDIO
    TITLE "8:cjc113_2758"
    INDEX 01 00:48:71
  TRACK 44 AUDIO
    TITLE "0:"
    INDEX 01 00:50:15
  TRACK 45 AUDIO
    TITLE "9:cjc113_2759"
    INDEX 01 00:50:37
  TRACK 46 AUDIO
    TITLE "0:"
    INDEX 01 00:51:60
  TRACK 47 AUDIO
    TITLE "10:cjc113_2760"
    INDEX 01 00:52:08
  TRACK 48 AUDIO
    TITLE "0:"
    INDEX 01 00:55:14
  TRACK 49 AUDIO
    TITLE "8:cjc113_2761"
    INDEX 01 00:55:59
  TRACK 50 AUDIO
    TITLE "0:"
    INDEX 01 00:57:21
  TRACK 51 AUDIO
    TITLE "9:cjc113_2762"
    INDEX 01 00:57:45
  TRACK 52 AUDIO
    TITLE "0:"
    INDEX 01 00:58:69
  TRACK 53 AUDIO
    TITLE "10:cjc113_2763"
    INDEX 01 00:59:14
  TRACK 54 AUDIO
    TITLE "0:"
    INDEX 01 01:03:12
  TRACK 55 AUDIO
    TITLE "8:cjc113_2764"
    INDEX 01 01:03:59
  TRACK 56 AUDIO
    TITLE "0:"
    INDEX 01 01:04:74
  TRACK 57 AUDIO
    TITLE "9:cjc113_2765"
    INDEX 01 01:05:24
  TRACK 58 AUDIO
    TITLE "0:"
    INDEX 01 01:06:55
  TRACK 59 AUDIO
    TITLE "10:cjc113_2766"
    INDEX 01 01:07:02
  TRACK 60 AUDIO
    TITLE "0:"
    INDEX 01 01:10:63
  TRACK 61 AUDIO
    TITLE "8:cjc113_2767"
    INDEX 01 01:11:39
  TRACK 62 AUDIO
    TITLE "0:"
    INDEX 01 01:12:54
  TRACK 63 AUDIO
    TITLE "9:cjc113_2768"
    INDEX 01 01:13:00
  TRACK 64 AUDIO
    TITLE "0:"
    INDEX 01 01:14:19
  TRACK 65 AUDIO
    TITLE "10:cjc113_2769"
    INDEX 01 01:14:41
  TRACK 66 AUDIO
    TITLE "0:"
    INDEX 01 01:17:20
  TRACK 67 AUDIO
    TITLE "8:cjc113_2770"
    INDEX 01 01:17:69
  TRACK 68 AUDIO
    TITLE "0:"
    INDEX 01 01:18:72
  TRACK 69 AUDIO
    TITLE "9:cjc113_2771"
    INDEX 01 01:19:19
  TRACK 70 AUDIO
    TITLE "0:"
    INDEX 01 01:20:69
  TRACK 71 AUDIO
    TITLE "10:cjc113_2772"
    INDEX 01 01:21:20
  TRACK 72 AUDIO
    TITLE "0:"
    INDEX 01 01:24:30
